<svg id="svg" version="1.1" xmlns="http://www.w3.org/2000/svg" xmlns:xlink="http://www.w3.org/1999/xlink" width="400" height="400" viewBox="0, 0, 400,400"><g id="svgg"><path id="path0" d="M143.235 66.291 C 143.184 66.441,131.234 127.875,116.681 202.813 C 102.128 277.750,90.158 339.371,90.082 339.748 L 89.944 340.434 143.045 340.359 C 200.426 340.277,198.296 340.316,208.646 339.157 C 261.047 333.287,295.671 307.734,305.528 267.656 C 315.054 228.922,294.516 201.901,251.154 196.118 C 249.714 195.926,248.572 195.734,248.616 195.690 C 248.660 195.646,250.090 195.285,251.796 194.887 C 290.687 185.810,316.458 155.465,316.458 118.748 C 316.458 86.375,293.334 70.130,241.979 66.427 C 236.798 66.054,143.361 65.925,143.235 66.291 M232.917 97.473 C 266.218 100.305,278.121 110.352,275.523 133.438 C 272.352 161.603,253.281 177.481,218.180 181.180 C 213.718 181.650,159.793 181.870,159.790 181.418 C 159.789 181.107,175.805 97.751,175.948 97.327 C 176.071 96.961,228.479 97.096,232.917 97.473 M211.563 212.085 C 253.046 213.630,271.170 227.350,268.254 255.000 C 264.877 287.010,243.255 305.226,204.583 308.640 C 194.848 309.500,135.000 309.799,135.000 308.988 C 135.000 308.441,153.700 212.333,153.855 212.082 C 154.024 211.809,204.218 211.811,211.563 212.085 " stroke="none" fill="#fbfbfb" fill-rule="evenodd"></path><path id="path1" d="M206.198 181.609 C 206.570 181.655,207.180 181.655,207.552 181.609 C 207.924 181.563,207.620 181.525,206.875 181.525 C 206.130 181.525,205.826 181.563,206.198 181.609 M252.285 289.948 L 251.146 291.146 252.344 290.007 C 253.003 289.381,253.542 288.842,253.542 288.809 C 253.542 288.655,253.342 288.835,252.285 289.948 M283.434 307.344 L 281.354 309.479 283.490 307.400 C 284.664 306.256,285.625 305.295,285.625 305.264 C 285.625 305.114,285.365 305.360,283.434 307.344 " stroke="none" fill="#4d4d4d" fill-rule="evenodd"></path><path id="path2" d="M234.115 66.192 C 234.487 66.239,235.096 66.239,235.469 66.192 C 235.841 66.146,235.536 66.108,234.792 66.108 C 234.047 66.108,233.742 66.146,234.115 66.192 M239.950 66.397 C 240.209 66.447,240.584 66.445,240.784 66.393 C 240.983 66.341,240.771 66.300,240.313 66.303 C 239.854 66.305,239.691 66.348,239.950 66.397 M175.972 97.222 C 175.896 97.299,175.835 97.463,175.837 97.587 C 175.838 97.721,175.906 97.708,176.005 97.553 C 176.134 97.349,181.402 97.282,200.741 97.240 L 225.313 97.186 200.712 97.135 C 187.181 97.106,176.049 97.146,175.972 97.222 M229.950 97.439 C 230.209 97.489,230.584 97.487,230.784 97.435 C 230.983 97.383,230.771 97.342,230.313 97.344 C 229.854 97.347,229.691 97.389,229.950 97.439 M268.950 109.219 C 269.813 110.139,270.000 110.304,270.000 110.148 C 270.000 110.114,269.555 109.669,269.010 109.158 L 268.021 108.229 268.950 109.219 M316.538 118.646 C 316.538 120.021,316.572 120.556,316.613 119.836 C 316.654 119.115,316.653 117.990,316.612 117.336 C 316.571 116.681,316.537 117.271,316.538 118.646 M261.969 163.385 L 261.146 164.271 262.031 163.447 C 262.855 162.681,263.012 162.500,262.855 162.500 C 262.821 162.500,262.422 162.898,261.969 163.385 M294.265 172.135 L 292.813 173.646 294.323 172.193 C 295.726 170.844,295.928 170.625,295.776 170.625 C 295.744 170.625,295.064 171.305,294.265 172.135 M210.365 181.605 C 210.622 181.655,211.044 181.655,211.302 181.605 C 211.560 181.556,211.349 181.515,210.833 181.515 C 210.318 181.515,210.107 181.556,210.365 181.605 M167.448 212.031 C 174.924 212.062,187.159 212.062,194.635 212.031 C 202.112 212.001,195.995 211.976,181.042 211.976 C 166.089 211.976,159.971 212.001,167.448 212.031 M213.594 212.227 C 213.794 212.279,214.122 212.279,214.323 212.227 C 214.523 212.175,214.359 212.132,213.958 212.132 C 213.557 212.132,213.393 212.175,213.594 212.227 M293.542 214.271 C 294.164 214.901,294.720 215.417,294.777 215.417 C 294.835 215.417,294.372 214.901,293.750 214.271 C 293.128 213.641,292.572 213.125,292.514 213.125 C 292.457 213.125,292.919 213.641,293.542 214.271 M259.375 226.315 C 259.375 226.351,259.680 226.656,260.052 226.992 L 260.729 227.604 260.117 226.927 C 259.547 226.296,259.375 226.154,259.375 226.315 M307.788 249.688 C 307.788 251.063,307.822 251.598,307.863 250.877 C 307.904 250.157,307.903 249.032,307.862 248.377 C 307.821 247.723,307.787 248.313,307.788 249.688 M197.760 309.102 C 197.961 309.154,198.289 309.154,198.490 309.102 C 198.690 309.050,198.526 309.007,198.125 309.007 C 197.724 309.007,197.560 309.050,197.760 309.102 M149.548 309.323 C 157.606 309.353,170.731 309.353,178.714 309.323 C 186.697 309.293,180.104 309.268,164.063 309.268 C 148.021 309.268,141.489 309.293,149.548 309.323 M192.135 340.358 C 192.451 340.405,192.966 340.405,193.281 340.358 C 193.596 340.310,193.339 340.271,192.708 340.271 C 192.078 340.271,191.820 340.310,192.135 340.358 " stroke="none" fill="#a7a7a7" fill-rule="evenodd"></path><path id="path3" d="M208.492 181.606 C 208.751 181.656,209.126 181.654,209.325 181.601 C 209.525 181.549,209.313 181.509,208.854 181.511 C 208.396 181.513,208.233 181.556,208.492 181.606 " stroke="none" fill="#848484" fill-rule="evenodd"></path><path id="path4" d="" stroke="none" fill="#8c8c8c" fill-rule="evenodd"></path></g></svg>