<svg version="1.1" id="Layer_1" xmlns="http://www.w3.org/2000/svg" xmlns:xlink="http://www.w3.org/1999/xlink" x="0px" y="0px"
	 width="100%" viewBox="0 0 1060 1060" enable-background="new 0 0 1060 1060" xml:space="preserve">
<path fill="#000000" opacity="1.000000" stroke="none" 
	d="
M618.000000,1061.000000 
	C412.024170,1061.000000 206.548340,1061.000000 1.036250,1061.000000 
	C1.036250,707.732361 1.036250,354.464783 1.036250,1.098578 
	C354.226044,1.098578 707.452148,1.098578 1060.839111,1.098578 
	C1060.839111,354.333282 1060.839111,707.666626 1060.839111,1061.000000 
	C913.464355,1061.000000 765.982178,1061.000000 618.000000,1061.000000 
M305.000000,533.525940 
	C306.559723,543.441956 308.098633,553.361389 309.688934,563.272461 
	C310.374023,567.542053 312.071411,571.417664 310.582123,576.194702 
	C306.999878,587.685181 304.793182,599.522278 304.981110,611.684204 
	C305.086334,618.494568 304.640289,625.332520 305.103699,632.112854 
	C305.545013,638.570068 306.418335,645.066956 307.868927,651.369751 
	C310.014221,660.691101 311.838531,669.531372 309.257690,679.440247 
	C306.252899,690.977112 305.109741,703.098877 304.214142,715.045959 
	C303.709137,721.782471 305.315491,728.679443 305.993134,735.501892 
	C308.158600,757.304626 315.215332,777.512878 326.074005,796.437012 
	C341.118103,822.655396 361.622894,843.767151 386.306366,861.067566 
	C409.211639,877.121643 434.375275,888.220642 461.213715,895.541870 
	C477.966797,900.111877 495.005859,903.641663 512.473755,903.883850 
	C516.858948,903.944641 518.223022,905.100586 518.087280,909.524597 
	C517.542725,927.267700 517.173401,945.019836 517.040283,962.770935 
	C516.872864,985.099243 517.000000,1007.429810 517.000000,1029.759399 
	C517.000000,1034.085815 517.000000,1038.412109 517.000000,1042.729492 
	C521.921265,1042.729492 527.337708,1042.729492 532.764465,1042.729492 
	C533.273010,996.661316 533.778564,950.862183 534.276428,905.757019 
	C546.833740,904.471375 558.960144,903.680115 570.933838,901.875427 
	C582.555725,900.123901 594.154175,897.845337 605.526489,894.888672 
	C628.186829,888.997253 649.271301,879.229370 669.162537,866.953003 
	C687.331543,855.739502 703.323242,841.871155 717.500793,825.939392 
	C720.940491,822.074219 723.914612,817.788086 727.023010,813.635742 
	C735.644714,802.118469 742.428101,789.561340 747.971252,776.312988 
	C755.353210,758.669800 758.974609,740.174011 759.898132,721.169312 
	C760.208435,714.783569 759.733826,708.287903 758.904602,701.935669 
	C757.713623,692.812073 755.791443,683.786072 754.343506,674.692627 
	C753.788391,671.205872 752.687988,667.389221 753.530212,664.165405 
	C758.469055,645.260864 761.849731,626.250916 758.945312,606.679688 
	C757.358765,595.988708 755.127197,585.394653 753.368530,574.726929 
	C753.005981,572.527893 753.022278,570.081116 753.593018,567.943054 
	C757.730652,552.442505 760.123779,536.718933 759.956604,520.659973 
	C759.919250,517.072388 759.487000,513.468201 758.969055,509.910522 
	C757.779846,501.741791 756.393311,493.602051 755.149597,485.440948 
	C754.243347,479.494690 752.742859,474.029846 754.406555,467.438538 
	C757.487610,455.232422 758.585266,442.476807 759.851196,429.883942 
	C760.403503,424.389160 759.722961,418.674286 758.916199,413.159729 
	C757.397156,402.776581 755.282166,392.481812 753.642944,382.114227 
	C753.254822,379.659607 753.539551,377.028320 753.907043,374.536194 
	C755.869385,361.228943 758.704956,347.997986 759.739136,334.624664 
	C760.439636,325.566956 758.950500,316.286774 757.937988,307.161835 
	C756.313049,292.517059 752.021545,278.567993 746.020508,265.120819 
	C734.014099,238.216431 716.060059,215.971573 693.635803,197.025345 
	C675.832214,181.983078 656.083252,170.240067 634.670959,161.349762 
	C607.305603,149.987732 578.845215,143.035797 549.102844,142.034607 
	C545.598633,141.916641 543.880310,141.018356 543.909790,136.934708 
	C544.090088,111.940193 543.999878,86.943726 544.000671,61.947903 
	C544.000671,61.114780 544.013794,60.281658 544.013855,59.448536 
	C544.014709,46.086327 544.014465,32.724121 544.014465,19.222179 
	C539.488647,19.222179 534.417297,19.222179 528.792175,19.222179 
	C528.262268,59.851902 527.735107,100.265968 527.211487,140.410095 
	C515.668518,141.654617 504.707245,142.287415 493.954559,144.134567 
	C480.475220,146.450089 466.985229,149.110580 453.823853,152.783218 
	C428.717285,159.789154 405.657013,171.395615 384.291962,186.302948 
	C368.558960,197.280548 354.524170,210.269623 342.577454,225.178772 
	C332.528687,237.719360 324.169922,251.462616 317.786041,266.419678 
	C308.368805,288.483826 304.126892,311.253571 304.836273,335.247925 
	C305.263794,349.707581 307.242096,363.703156 311.701752,377.415039 
	C311.993225,378.311218 311.344940,379.516052 311.124115,380.575317 
	C309.084534,390.357849 305.741516,400.079132 305.280640,409.935242 
	C304.400208,428.763916 303.885803,447.738342 309.490387,466.222290 
	C310.707703,470.236969 312.114746,474.224792 310.665619,479.096954 
	C307.243317,490.603241 304.652893,502.391968 304.972778,514.586853 
	C305.129913,520.577026 305.000000,526.574768 305.000000,533.525940 
z"/>
<path fill="#FFFFFF" opacity="1.000000" stroke="none" 
	d="
M305.000000,533.047485 
	C305.000000,526.574768 305.129913,520.577026 304.972778,514.586853 
	C304.652893,502.391968 307.243317,490.603241 310.665619,479.096954 
	C312.114746,474.224792 310.707703,470.236969 309.490387,466.222290 
	C303.885803,447.738342 304.400208,428.763916 305.280640,409.935242 
	C305.741516,400.079132 309.084534,390.357849 311.124115,380.575317 
	C311.344940,379.516052 311.993225,378.311218 311.701752,377.415039 
	C307.242096,363.703156 305.263794,349.707581 304.836273,335.247925 
	C304.126892,311.253571 308.368805,288.483826 317.786041,266.419678 
	C324.169922,251.462616 332.528687,237.719360 342.577454,225.178772 
	C354.524170,210.269623 368.558960,197.280548 384.291962,186.302948 
	C405.657013,171.395615 428.717285,159.789154 453.823853,152.783218 
	C466.985229,149.110580 480.475220,146.450089 493.954559,144.134567 
	C504.707245,142.287415 515.668518,141.654617 527.211487,140.410095 
	C527.735107,100.265968 528.262268,59.851902 528.792175,19.222179 
	C534.417297,19.222179 539.488647,19.222179 544.014465,19.222179 
	C544.014465,32.724121 544.014709,46.086327 544.013855,59.448536 
	C544.013794,60.281658 544.000671,61.114780 544.000671,61.947903 
	C543.999878,86.943726 544.090088,111.940193 543.909790,136.934708 
	C543.880310,141.018356 545.598633,141.916641 549.102844,142.034607 
	C578.845215,143.035797 607.305603,149.987732 634.670959,161.349762 
	C656.083252,170.240067 675.832214,181.983078 693.635803,197.025345 
	C716.060059,215.971573 734.014099,238.216431 746.020508,265.120819 
	C752.021545,278.567993 756.313049,292.517059 757.937988,307.161835 
	C758.950500,316.286774 760.439636,325.566956 759.739136,334.624664 
	C758.704956,347.997986 755.869385,361.228943 753.907043,374.536194 
	C753.539551,377.028320 753.254822,379.659607 753.642944,382.114227 
	C755.282166,392.481812 757.397156,402.776581 758.916199,413.159729 
	C759.722961,418.674286 760.403503,424.389160 759.851196,429.883942 
	C758.585266,442.476807 757.487610,455.232422 754.406555,467.438538 
	C752.742859,474.029846 754.243347,479.494690 755.149597,485.440948 
	C756.393311,493.602051 757.779846,501.741791 758.969055,509.910522 
	C759.487000,513.468201 759.919250,517.072388 759.956604,520.659973 
	C760.123779,536.718933 757.730652,552.442505 753.593018,567.943054 
	C753.022278,570.081116 753.005981,572.527893 753.368530,574.726929 
	C755.127197,585.394653 757.358765,595.988708 758.945312,606.679688 
	C761.849731,626.250916 758.469055,645.260864 753.530212,664.165405 
	C752.687988,667.389221 753.788391,671.205872 754.343506,674.692627 
	C755.791443,683.786072 757.713623,692.812073 758.904602,701.935669 
	C759.733826,708.287903 760.208435,714.783569 759.898132,721.169312 
	C758.974609,740.174011 755.353210,758.669800 747.971252,776.312988 
	C742.428101,789.561340 735.644714,802.118469 727.023010,813.635742 
	C723.914612,817.788086 720.940491,822.074219 717.500793,825.939392 
	C703.323242,841.871155 687.331543,855.739502 669.162537,866.953003 
	C649.271301,879.229370 628.186829,888.997253 605.526489,894.888672 
	C594.154175,897.845337 582.555725,900.123901 570.933838,901.875427 
	C558.960144,903.680115 546.833740,904.471375 534.276428,905.757019 
	C533.778564,950.862183 533.273010,996.661316 532.764465,1042.729492 
	C527.337708,1042.729492 521.921265,1042.729492 517.000000,1042.729492 
	C517.000000,1038.412109 517.000000,1034.085815 517.000000,1029.759399 
	C517.000000,1007.429810 516.872864,985.099243 517.040283,962.770935 
	C517.173401,945.019836 517.542725,927.267700 518.087280,909.524597 
	C518.223022,905.100586 516.858948,903.944641 512.473755,903.883850 
	C495.005859,903.641663 477.966797,900.111877 461.213715,895.541870 
	C434.375275,888.220642 409.211639,877.121643 386.306366,861.067566 
	C361.622894,843.767151 341.118103,822.655396 326.074005,796.437012 
	C315.215332,777.512878 308.158600,757.304626 305.993134,735.501892 
	C305.315491,728.679443 303.709137,721.782471 304.214142,715.045959 
	C305.109741,703.098877 306.252899,690.977112 309.257690,679.440247 
	C311.838531,669.531372 310.014221,660.691101 307.868927,651.369751 
	C306.418335,645.066956 305.545013,638.570068 305.103699,632.112854 
	C304.640289,625.332520 305.086334,618.494568 304.981110,611.684204 
	C304.793182,599.522278 306.999878,587.685181 310.582123,576.194702 
	C312.071411,571.417664 310.374023,567.542053 309.688934,563.272461 
	C308.098633,553.361389 306.559723,543.441956 305.000000,533.047485 
M729.519897,713.987732 
	C718.269043,729.889099 704.920044,743.731140 689.696167,755.925720 
	C668.735779,772.715332 645.533752,785.301697 620.218201,793.954834 
	C594.597717,802.712219 568.314392,808.141479 541.078430,808.003601 
	C537.003479,807.982971 534.879883,809.435242 534.914307,814.120667 
	C535.096802,838.941223 534.995911,863.763916 535.013550,888.585815 
	C535.014343,889.690735 535.213013,890.795471 535.342834,892.142456 
	C545.448914,891.403809 555.370789,891.352356 565.052429,889.801270 
	C577.273865,887.843201 589.371582,884.950867 601.393677,881.945618 
	C622.904236,876.568665 642.788879,867.251221 661.671753,855.780212 
	C678.792297,845.379883 693.627869,832.166992 706.977600,817.345642 
	C712.155029,811.597534 716.675964,805.184814 720.960327,798.719910 
	C731.889648,782.228516 739.549194,764.289368 743.577881,744.870667 
	C747.216309,727.332825 747.726807,709.739014 743.413574,691.464233 
	C738.953064,698.792053 734.492615,706.119812 729.519897,713.987732 
M445.972992,169.537506 
	C435.162811,174.379425 424.067749,178.678513 413.599579,184.172150 
	C389.033661,197.064209 368.089844,214.518097 351.064392,236.491440 
	C340.866547,249.652893 332.864044,264.059967 326.949249,279.673157 
	C319.356781,299.714905 316.989197,320.457336 318.066040,341.685822 
	C318.294281,346.185150 319.362732,350.641876 320.044098,355.118225 
	C320.475067,355.153534 320.906036,355.188843 321.336975,355.224152 
	C340.236938,316.600220 370.171753,288.784271 407.245056,268.461365 
	C444.021484,248.301193 483.689850,238.304428 526.326416,237.782013 
	C526.326416,209.743973 526.326416,181.930664 526.326416,154.675934 
	C499.044830,154.734360 472.504578,160.149277 445.972992,169.537506 
M543.000000,184.500000 
	C543.000000,202.194824 543.000000,219.889664 543.000000,237.720779 
	C583.669495,239.212051 622.653625,249.361176 658.870667,269.435516 
	C695.517212,289.747894 724.287781,318.076172 744.811401,355.267578 
	C746.000061,344.159973 745.966064,333.591095 746.009644,323.022522 
	C746.053528,312.365051 743.808960,302.138245 741.124329,291.861633 
	C734.656921,267.105286 722.079285,245.741364 705.234192,226.913971 
	C690.352295,210.280945 673.019836,196.575089 653.395691,185.601242 
	C635.749512,175.733444 617.360840,168.001892 597.830322,163.090118 
	C586.583679,160.261688 575.161438,158.017029 563.714417,156.144089 
	C557.000427,155.045547 550.082642,155.192871 543.000000,154.764236 
	C543.000000,164.886017 543.000000,174.193008 543.000000,184.500000 
M396.027527,851.532166 
	C410.885132,861.181274 426.208130,870.077698 443.146790,875.444763 
	C458.113495,880.187073 473.312500,884.327209 488.616211,887.826721 
	C498.046814,889.983215 507.866150,890.439819 518.316833,891.761597 
	C518.316833,863.122742 518.316833,835.666809 518.316833,808.801025 
	C432.983612,801.034485 363.037384,768.019287 320.276398,690.178406 
	C307.961395,753.771851 341.590240,814.711365 396.027527,851.532166 
M714.035217,636.609253 
	C704.464783,648.666382 692.397522,658.009888 680.073303,666.904968 
	C658.810364,682.251587 635.339355,693.335510 610.258423,700.939331 
	C593.352722,706.064575 576.045959,709.291382 558.467224,710.965881 
	C551.453064,711.633911 544.402649,711.921326 536.685913,712.426697 
	C536.685913,739.874817 536.685913,767.332092 536.685913,796.150696 
	C550.662354,794.431030 564.626953,793.046753 578.480042,790.932312 
	C600.872131,787.514587 622.114807,780.170227 642.340088,770.131226 
	C667.195801,757.793884 689.093262,741.586426 707.355957,720.373901 
	C719.743530,705.985352 729.233704,690.066284 736.591431,672.744019 
	C737.550110,670.487061 738.404114,667.254150 737.508179,665.296143 
	C732.645691,654.669739 727.234558,644.293579 721.973022,633.851074 
	C720.783875,631.490784 719.163330,631.266663 717.294861,633.197327 
	C716.368713,634.154297 715.412842,635.082458 714.035217,636.609253 
M423.003632,275.494690 
	C399.497986,287.346313 378.252502,302.064148 360.461609,321.823059 
	C345.750946,338.161041 334.346863,356.250031 326.724213,376.787567 
	C326.337891,377.828339 326.352844,379.317993 326.801239,380.321533 
	C330.660858,388.959869 334.535400,397.596863 338.688080,406.096222 
	C340.272736,409.339600 342.592346,412.223907 344.606323,415.316895 
	C392.820160,360.988220 454.246643,337.127167 525.402588,333.639984 
	C525.402588,306.058319 525.402588,278.717865 525.402588,250.794678 
	C489.889526,251.899460 455.882690,259.696533 423.003632,275.494690 
M688.953247,385.438293 
	C696.258240,392.084015 703.627869,398.660767 710.831543,405.414520 
	C713.207275,407.641815 715.114502,410.362213 717.309570,412.790558 
	C719.107788,414.779877 720.783691,414.511505 721.973328,412.149597 
	C727.233032,401.707062 732.502502,391.268433 737.605225,380.749207 
	C738.184814,379.554291 738.175903,377.696106 737.699097,376.422852 
	C729.905334,355.608673 718.233154,337.118561 703.221130,320.825134 
	C691.433899,308.031799 678.014404,297.085999 663.286133,287.764526 
	C642.793274,274.794617 620.839905,265.077057 597.368225,259.129150 
	C585.339905,256.081085 573.018066,254.101791 560.750610,252.125336 
	C554.683228,251.147797 548.438599,251.270706 541.620605,250.855972 
	C541.620605,279.012421 541.620605,306.470062 541.620605,333.565491 
	C545.658325,334.054443 549.562134,334.505554 553.459900,335.003357 
	C563.780762,336.321411 574.157227,337.317596 584.406311,339.060516 
	C606.381348,342.797455 627.517090,349.605499 647.207397,359.928070 
	C661.403748,367.370422 674.664124,376.598114 688.953247,385.438293 
M414.428741,685.039490 
	C387.635101,671.629333 364.472595,653.529236 344.038025,629.716980 
	C338.429688,641.147156 333.055908,651.696655 328.125153,662.449341 
	C326.981506,664.943359 326.852600,668.186890 327.170807,670.981445 
	C327.448914,673.423828 328.947815,675.749695 330.018341,678.075928 
	C341.978790,704.065552 358.937439,726.027588 381.339386,744.041626 
	C401.297668,760.090698 423.208130,772.562378 447.270660,780.740112 
	C462.887299,786.047485 479.231659,789.345642 495.404419,792.826416 
	C502.973846,794.455505 510.908600,794.387146 519.358215,795.149475 
	C519.358215,767.084473 519.358215,739.607239 519.358215,712.060974 
	C482.827576,710.241760 448.010071,701.481934 414.428741,685.039490 
M638.351929,675.967651 
	C666.581482,661.973389 691.866455,644.249207 711.167969,619.358398 
	C699.697693,604.789856 686.434326,593.108459 672.116882,582.523193 
	C668.528809,579.870483 665.539368,580.031799 661.596985,581.967468 
	C648.503845,588.396484 635.578430,595.501831 621.859497,600.233704 
	C606.115112,605.664307 589.726257,609.512085 573.362305,612.763489 
	C561.902954,615.040283 550.015869,615.164429 537.669067,616.310303 
	C537.669067,643.908020 537.669067,671.380432 537.669067,698.999817 
	C538.455933,698.999817 539.288208,699.086548 540.097534,698.987061 
	C556.250916,697.001038 572.583008,695.906006 588.503418,692.741577 
	C605.469666,689.369324 621.955078,683.772705 638.351929,675.967651 
M524.000000,422.419373 
	C524.000000,397.390289 524.000000,372.361237 524.000000,346.874054 
	C456.796021,350.760193 398.077179,373.736908 352.981201,426.340454 
	C364.623627,441.654510 378.584686,453.902985 394.094208,464.394287 
	C395.689606,465.473511 398.904694,465.252197 400.883759,464.445557 
	C405.170624,462.698303 409.132843,460.160431 413.246643,457.981445 
	C429.920197,449.149994 447.643555,442.884491 465.812897,438.253662 
	C478.001770,435.147095 490.673218,433.872406 503.169189,432.056549 
	C510.031647,431.059326 516.977966,430.639008 524.000000,429.947388 
	C524.000000,427.369232 524.000000,425.382080 524.000000,422.419373 
M699.503418,439.997559 
	C703.379883,435.750244 707.256348,431.502899 711.088745,427.303864 
	C702.063354,412.880920 677.251404,390.709503 649.295410,375.769928 
	C615.582092,357.753571 579.426208,348.865051 540.668945,347.123077 
	C540.668945,374.780518 540.668945,402.145508 540.668945,430.292236 
	C585.646912,431.791626 628.271912,443.432343 667.989868,467.412018 
	C678.275208,458.485687 688.638184,449.491974 699.503418,439.997559 
M371.976227,599.536560 
	C365.102448,605.579651 358.228668,611.622681 351.346741,617.672913 
	C397.005615,671.320801 454.334473,694.588745 521.428650,699.024109 
	C521.428650,670.954529 521.428650,643.604980 521.428650,616.157166 
	C519.875732,615.796509 518.181580,615.248230 516.445618,615.024475 
	C503.221649,613.319885 489.887787,612.246887 476.781219,609.899292 
	C449.667938,605.042725 424.380402,595.043213 400.559998,581.226562 
	C399.052277,580.351990 396.069641,580.000732 394.900604,580.889343 
	C387.251587,586.703552 379.913330,592.926697 371.976227,599.536560 
M541.687378,526.999817 
	C586.574829,528.076233 628.264160,540.293030 666.896423,563.090637 
	C683.929199,552.098572 698.396179,538.487366 711.290588,523.033997 
	C698.147034,507.324921 683.714233,493.661316 666.912842,482.954926 
	C647.243652,494.088104 627.240234,503.268188 605.672485,509.267487 
	C583.909851,515.321045 561.885010,518.610657 538.197327,519.288818 
	C539.139954,522.152344 539.937256,524.574463 541.687378,526.999817 
M440.966949,542.546631 
	C453.125519,539.031250 465.143738,534.871887 477.482300,532.182373 
	C489.694946,529.520264 502.230896,528.341309 515.542480,526.376404 
	C511.726562,523.280212 508.823242,519.123352 505.158661,518.281982 
	C493.200775,515.536438 480.858276,514.494080 468.858917,511.895355 
	C444.528595,506.626007 421.767151,497.100189 400.319672,484.545135 
	C397.761383,483.047546 396.673004,483.017914 394.504669,484.805389 
	C386.865021,491.103210 378.657745,496.750336 371.333649,503.381897 
	C364.660980,509.423584 358.856445,516.424133 351.968384,523.747192 
	C361.598755,532.941711 370.605682,541.898499 380.031250,550.390686 
	C384.817902,554.703308 390.315125,558.240723 395.603760,561.968750 
	C396.448364,562.564148 398.112030,562.793213 399.008148,562.369324 
	C401.609894,561.138855 403.900421,559.241394 406.515198,558.048828 
	C417.728516,552.934448 429.014465,547.979370 440.966949,542.546631 
M538.033142,602.081055 
	C539.943237,602.054138 541.853577,601.991150 543.763306,602.005920 
	C559.500977,602.127869 574.876953,599.375122 590.141663,595.968506 
	C612.548279,590.968079 633.678223,582.601257 654.048767,571.269958 
	C618.174438,551.117371 579.919312,541.350647 538.002197,539.811462 
	C538.002197,560.741150 538.002197,580.942261 538.033142,602.081055 
M540.000000,459.499207 
	C540.000000,474.972534 540.000000,490.445862 540.000000,506.188080 
	C579.958374,504.695190 617.941101,495.185822 653.963013,474.691101 
	C617.964172,455.084778 580.503357,444.554443 540.000000,443.836517 
	C540.000000,449.223877 540.000000,453.863037 540.000000,459.499207 
M436.729370,487.967621 
	C452.100800,492.447754 467.481659,496.895874 482.839630,501.421661 
	C490.438538,503.660950 497.621460,504.637207 502.841370,496.706970 
	C504.345428,494.421906 506.172699,494.395111 508.102264,496.537231 
	C510.104156,498.759705 512.117554,501.054657 514.486206,502.839935 
	C516.736572,504.536072 519.452759,505.614166 523.299438,507.681732 
	C523.299438,485.316193 523.299438,464.836670 523.299438,443.776459 
	C483.556183,444.857635 446.202606,455.151398 409.806458,474.986786 
	C419.316284,479.544220 427.681305,483.553040 436.729370,487.967621 
M501.030365,563.547119 
	C498.625549,561.282471 496.220764,559.017822 492.690033,555.692932 
	C498.052948,550.462158 503.057617,545.580872 507.857758,540.899048 
	C473.847107,544.345703 441.240173,553.784119 410.161926,571.295715 
	C445.560272,590.653931 482.315277,600.955933 521.576660,602.223206 
	C521.576660,585.340271 521.576660,569.202332 521.576660,551.648499 
	C516.872742,556.455811 512.849060,560.148621 509.342072,564.280029 
	C506.348053,567.807068 504.050293,567.511292 501.030365,563.547119 
M720.326843,439.036652 
	C719.077576,439.670593 717.452576,439.995178 716.636719,440.985962 
	C707.821167,451.691772 697.764832,461.034607 686.527344,469.147675 
	C684.097290,470.902039 681.917480,473.002869 679.355408,475.169922 
	C694.325439,485.114075 706.262268,497.344116 718.057373,509.749054 
	C718.501587,510.216278 720.789246,509.930206 721.107117,509.367584 
	C725.609436,501.399078 729.781067,493.243042 734.316650,485.294373 
	C738.437683,478.072205 738.204590,471.239410 734.074280,464.063751 
	C729.444153,456.020020 725.300659,447.696198 720.326843,439.036652 
M734.584229,561.064880 
	C729.708435,552.137939 726.188354,542.382751 719.840820,535.447510 
	C706.467529,547.779053 693.517334,559.720581 680.437988,571.781067 
	C680.261230,571.537231 680.469421,572.021118 680.834351,572.299500 
	C694.018311,582.354004 706.894043,592.733765 717.343628,605.780945 
	C718.630005,607.387146 719.971680,607.986206 721.338013,605.331360 
	C725.146851,597.930237 729.021790,590.543274 733.305481,583.411926 
	C737.549744,576.346313 739.054688,569.337341 734.584229,561.064880 
M367.523254,584.986084 
	C373.228180,580.404907 378.933075,575.823669 383.991272,571.761780 
	C370.820801,559.719666 357.589050,547.621582 343.516998,534.755127 
	C338.777588,544.121155 333.757172,553.715515 329.084839,563.476501 
	C327.694153,566.381775 325.716339,570.385742 326.692017,572.802551 
	C330.697540,582.724854 335.656006,592.270569 340.463898,601.854431 
	C341.492920,603.905701 343.356995,605.538025 344.848480,607.378235 
	C352.534637,599.784851 359.772583,592.634216 367.523254,584.986084 
M363.023895,492.463226 
	C370.333893,486.499268 377.643860,480.535309 383.931458,475.405487 
	C370.572479,463.214355 357.198975,451.009949 343.714569,438.704376 
	C339.838562,445.754974 335.111816,453.265137 331.517670,461.282990 
	C329.217194,466.414917 324.661011,471.635010 327.141907,477.737366 
	C330.753632,486.621368 335.135742,495.202332 339.424957,503.794891 
	C340.793762,506.536957 342.911377,508.905182 344.686371,511.444458 
	C344.162170,510.490326 343.638000,509.536194 343.113800,508.582062 
	C349.585175,503.382355 356.056549,498.182648 363.023895,492.463226 
M317.999969,621.487976 
	C318.507843,629.205505 319.015717,636.923096 319.603546,645.855591 
	C325.334717,636.724304 330.182648,629.167236 334.786469,621.464417 
	C335.396179,620.444214 335.261963,618.387085 334.626160,617.309448 
	C329.920105,609.332703 324.999695,601.482422 319.499329,592.540039 
	C318.969543,602.417175 318.484772,611.455505 317.999969,621.487976 
M741.041321,640.447876 
	C742.012207,641.721741 742.983093,642.995605 744.373169,644.819397 
	C747.291809,627.527954 747.488342,611.299500 744.271423,594.158752 
	C743.172668,595.653503 742.505615,596.446045 741.963745,597.316528 
	C737.974487,603.725220 734.133972,610.231262 729.973267,616.525940 
	C728.451965,618.827393 728.751892,620.495911 730.118042,622.585449 
	C733.811279,628.234314 737.363770,633.975281 741.041321,640.447876 
M324.960297,444.446228 
	C328.529358,438.562500 332.098419,432.678772 335.703339,426.735901 
	C330.757080,418.406433 325.642334,409.793213 320.029327,400.340942 
	C317.530640,417.933990 316.518738,434.486053 320.129333,450.939270 
	C320.583069,450.958923 321.036835,450.978577 321.490601,450.998230 
	C322.480347,449.009033 323.470123,447.019806 324.960297,444.446228 
M741.042664,447.473663 
	C742.016418,448.739899 742.990234,450.006134 744.456848,451.913239 
	C747.106567,430.651428 746.923157,411.092255 744.106384,401.984985 
	C743.674927,402.218353 743.094177,402.333221 742.883423,402.675751 
	C738.181335,410.317047 733.494873,417.968475 728.902466,425.675751 
	C728.562500,426.246246 728.672119,427.428314 729.047913,428.028625 
	C732.967346,434.290222 736.984009,440.490936 741.042664,447.473663 
M745.999939,538.234253 
	C745.999939,525.204712 745.999939,512.175232 745.999939,499.145691 
	C745.349976,498.960632 744.700012,498.775604 744.050049,498.590576 
	C743.165100,499.437622 742.045349,500.142700 741.433411,501.154846 
	C737.533630,507.605347 733.636230,514.063660 730.019104,520.673218 
	C729.347107,521.901245 729.382080,524.140320 730.062073,525.379883 
	C733.685791,531.985657 737.580994,538.444702 741.483459,544.893250 
	C742.083130,545.884094 743.208557,546.556824 744.378662,547.644104 
	C745.027283,544.246887 745.512695,541.704773 745.999939,538.234253 
M325.507080,539.995850 
	C328.971283,534.215576 332.435486,528.435303 335.677521,523.025696 
	C330.504059,514.393250 325.402710,505.881104 320.163208,497.138489 
	C317.210388,513.954651 316.773010,530.480408 320.027100,546.950012 
	C320.445007,546.999329 320.862915,547.048706 321.280823,547.098022 
	C322.532471,544.929749 323.784088,542.761475 325.507080,539.995850 
z"/>
<path fill="#000000" opacity="1.000000" stroke="none" 
	d="
M729.776001,713.717651 
	C734.492615,706.119812 738.953064,698.792053 743.413574,691.464233 
	C747.726807,709.739014 747.216309,727.332825 743.577881,744.870667 
	C739.549194,764.289368 731.889648,782.228516 720.960327,798.719910 
	C716.675964,805.184814 712.155029,811.597534 706.977600,817.345642 
	C693.627869,832.166992 678.792297,845.379883 661.671753,855.780212 
	C642.788879,867.251221 622.904236,876.568665 601.393677,881.945618 
	C589.371582,884.950867 577.273865,887.843201 565.052429,889.801270 
	C555.370789,891.352356 545.448914,891.403809 535.342834,892.142456 
	C535.213013,890.795471 535.014343,889.690735 535.013550,888.585815 
	C534.995911,863.763916 535.096802,838.941223 534.914307,814.120667 
	C534.879883,809.435242 537.003479,807.982971 541.078430,808.003601 
	C568.314392,808.141479 594.597717,802.712219 620.218201,793.954834 
	C645.533752,785.301697 668.735779,772.715332 689.696167,755.925720 
	C704.920044,743.731140 718.269043,729.889099 729.776001,713.717651 
z"/>
<path fill="#000000" opacity="1.000000" stroke="none" 
	d="
M446.293060,169.287170 
	C472.504578,160.149277 499.044830,154.734360 526.326416,154.675934 
	C526.326416,181.930664 526.326416,209.743973 526.326416,237.782013 
	C483.689850,238.304428 444.021484,248.301193 407.245056,268.461365 
	C370.171753,288.784271 340.236938,316.600220 321.336975,355.224152 
	C320.906036,355.188843 320.475067,355.153534 320.044098,355.118225 
	C319.362732,350.641876 318.294281,346.185150 318.066040,341.685822 
	C316.989197,320.457336 319.356781,299.714905 326.949249,279.673157 
	C332.864044,264.059967 340.866547,249.652893 351.064392,236.491440 
	C368.089844,214.518097 389.033661,197.064209 413.599579,184.172150 
	C424.067749,178.678513 435.162811,174.379425 446.293060,169.287170 
z"/>
<path fill="#000000" opacity="1.000000" stroke="none" 
	d="
M543.000000,184.000000 
	C543.000000,174.193008 543.000000,164.886017 543.000000,154.764236 
	C550.082642,155.192871 557.000427,155.045547 563.714417,156.144089 
	C575.161438,158.017029 586.583679,160.261688 597.830322,163.090118 
	C617.360840,168.001892 635.749512,175.733444 653.395691,185.601242 
	C673.019836,196.575089 690.352295,210.280945 705.234192,226.913971 
	C722.079285,245.741364 734.656921,267.105286 741.124329,291.861633 
	C743.808960,302.138245 746.053528,312.365051 746.009644,323.022522 
	C745.966064,333.591095 746.000061,344.159973 744.811401,355.267578 
	C724.287781,318.076172 695.517212,289.747894 658.870667,269.435516 
	C622.653625,249.361176 583.669495,239.212051 543.000000,237.720779 
	C543.000000,219.889664 543.000000,202.194824 543.000000,184.000000 
z"/>
<path fill="#000000" opacity="1.000000" stroke="none" 
	d="
M395.765656,851.267334 
	C341.590240,814.711365 307.961395,753.771851 320.276398,690.178406 
	C363.037384,768.019287 432.983612,801.034485 518.316833,808.801025 
	C518.316833,835.666809 518.316833,863.122742 518.316833,891.761597 
	C507.866150,890.439819 498.046814,889.983215 488.616211,887.826721 
	C473.312500,884.327209 458.113495,880.187073 443.146790,875.444763 
	C426.208130,870.077698 410.885132,861.181274 395.765656,851.267334 
z"/>
<path fill="#000000" opacity="1.000000" stroke="none" 
	d="
M714.252808,636.316528 
	C715.412842,635.082458 716.368713,634.154297 717.294861,633.197327 
	C719.163330,631.266663 720.783875,631.490784 721.973022,633.851074 
	C727.234558,644.293579 732.645691,654.669739 737.508179,665.296143 
	C738.404114,667.254150 737.550110,670.487061 736.591431,672.744019 
	C729.233704,690.066284 719.743530,705.985352 707.355957,720.373901 
	C689.093262,741.586426 667.195801,757.793884 642.340088,770.131226 
	C622.114807,780.170227 600.872131,787.514587 578.480042,790.932312 
	C564.626953,793.046753 550.662354,794.431030 536.685913,796.150696 
	C536.685913,767.332092 536.685913,739.874817 536.685913,712.426697 
	C544.402649,711.921326 551.453064,711.633911 558.467224,710.965881 
	C576.045959,709.291382 593.352722,706.064575 610.258423,700.939331 
	C635.339355,693.335510 658.810364,682.251587 680.073303,666.904968 
	C692.397522,658.009888 704.464783,648.666382 714.252808,636.316528 
z"/>
<path fill="#000000" opacity="1.000000" stroke="none" 
	d="
M423.314636,275.264435 
	C455.882690,259.696533 489.889526,251.899460 525.402588,250.794678 
	C525.402588,278.717865 525.402588,306.058319 525.402588,333.639984 
	C454.246643,337.127167 392.820160,360.988220 344.606323,415.316895 
	C342.592346,412.223907 340.272736,409.339600 338.688080,406.096222 
	C334.535400,397.596863 330.660858,388.959869 326.801239,380.321533 
	C326.352844,379.317993 326.337891,377.828339 326.724213,376.787567 
	C334.346863,356.250031 345.750946,338.161041 360.461609,321.823059 
	C378.252502,302.064148 399.497986,287.346313 423.314636,275.264435 
z"/>
<path fill="#000000" opacity="1.000000" stroke="none" 
	d="
M688.647583,385.233887 
	C674.664124,376.598114 661.403748,367.370422 647.207397,359.928070 
	C627.517090,349.605499 606.381348,342.797455 584.406311,339.060516 
	C574.157227,337.317596 563.780762,336.321411 553.459900,335.003357 
	C549.562134,334.505554 545.658325,334.054443 541.620605,333.565491 
	C541.620605,306.470062 541.620605,279.012421 541.620605,250.855972 
	C548.438599,251.270706 554.683228,251.147797 560.750610,252.125336 
	C573.018066,254.101791 585.339905,256.081085 597.368225,259.129150 
	C620.839905,265.077057 642.793274,274.794617 663.286133,287.764526 
	C678.014404,297.085999 691.433899,308.031799 703.221130,320.825134 
	C718.233154,337.118561 729.905334,355.608673 737.699097,376.422852 
	C738.175903,377.696106 738.184814,379.554291 737.605225,380.749207 
	C732.502502,391.268433 727.233032,401.707062 721.973328,412.149597 
	C720.783691,414.511505 719.107788,414.779877 717.309570,412.790558 
	C715.114502,410.362213 713.207275,407.641815 710.831543,405.414520 
	C703.627869,398.660767 696.258240,392.084015 688.647583,385.233887 
z"/>
<path fill="#000000" opacity="1.000000" stroke="none" 
	d="
M414.726532,685.286011 
	C448.010071,701.481934 482.827576,710.241760 519.358215,712.060974 
	C519.358215,739.607239 519.358215,767.084473 519.358215,795.149475 
	C510.908600,794.387146 502.973846,794.455505 495.404419,792.826416 
	C479.231659,789.345642 462.887299,786.047485 447.270660,780.740112 
	C423.208130,772.562378 401.297668,760.090698 381.339386,744.041626 
	C358.937439,726.027588 341.978790,704.065552 330.018341,678.075928 
	C328.947815,675.749695 327.448914,673.423828 327.170807,670.981445 
	C326.852600,668.186890 326.981506,664.943359 328.125153,662.449341 
	C333.055908,651.696655 338.429688,641.147156 344.038025,629.716980 
	C364.472595,653.529236 387.635101,671.629333 414.726532,685.286011 
z"/>
<path fill="#000000" opacity="1.000000" stroke="none" 
	d="
M637.963867,676.003540 
	C621.955078,683.772705 605.469666,689.369324 588.503418,692.741577 
	C572.583008,695.906006 556.250916,697.001038 540.097534,698.987061 
	C539.288208,699.086548 538.455933,698.999817 537.669067,698.999817 
	C537.669067,671.380432 537.669067,643.908020 537.669067,616.310303 
	C550.015869,615.164429 561.902954,615.040283 573.362305,612.763489 
	C589.726257,609.512085 606.115112,605.664307 621.859497,600.233704 
	C635.578430,595.501831 648.503845,588.396484 661.596985,581.967468 
	C665.539368,580.031799 668.528809,579.870483 672.116882,582.523193 
	C686.434326,593.108459 699.697693,604.789856 711.167969,619.358398 
	C691.866455,644.249207 666.581482,661.973389 637.963867,676.003540 
z"/>
<path fill="#000000" opacity="1.000000" stroke="none" 
	d="
M524.000000,422.907166 
	C524.000000,425.382080 524.000000,427.369232 524.000000,429.947388 
	C516.977966,430.639008 510.031647,431.059326 503.169189,432.056549 
	C490.673218,433.872406 478.001770,435.147095 465.812897,438.253662 
	C447.643555,442.884491 429.920197,449.149994 413.246643,457.981445 
	C409.132843,460.160431 405.170624,462.698303 400.883759,464.445557 
	C398.904694,465.252197 395.689606,465.473511 394.094208,464.394287 
	C378.584686,453.902985 364.623627,441.654510 352.981201,426.340454 
	C398.077179,373.736908 456.796021,350.760193 524.000000,346.874054 
	C524.000000,372.361237 524.000000,397.390289 524.000000,422.907166 
z"/>
<path fill="#000000" opacity="1.000000" stroke="none" 
	d="
M699.252258,440.247925 
	C688.638184,449.491974 678.275208,458.485687 667.989868,467.412018 
	C628.271912,443.432343 585.646912,431.791626 540.668945,430.292236 
	C540.668945,402.145508 540.668945,374.780518 540.668945,347.123077 
	C579.426208,348.865051 615.582092,357.753571 649.295410,375.769928 
	C677.251404,390.709503 702.063354,412.880920 711.088745,427.303864 
	C707.256348,431.502899 703.379883,435.750244 699.252258,440.247925 
z"/>
<path fill="#000000" opacity="1.000000" stroke="none" 
	d="
M372.224915,599.276367 
	C379.913330,592.926697 387.251587,586.703552 394.900604,580.889343 
	C396.069641,580.000732 399.052277,580.351990 400.559998,581.226562 
	C424.380402,595.043213 449.667938,605.042725 476.781219,609.899292 
	C489.887787,612.246887 503.221649,613.319885 516.445618,615.024475 
	C518.181580,615.248230 519.875732,615.796509 521.428650,616.157166 
	C521.428650,643.604980 521.428650,670.954529 521.428650,699.024109 
	C454.334473,694.588745 397.005615,671.320801 351.346741,617.672913 
	C358.228668,611.622681 365.102448,605.579651 372.224915,599.276367 
z"/>
<path fill="#000000" opacity="1.000000" stroke="none" 
	d="
M541.210938,526.998169 
	C539.937256,524.574463 539.139954,522.152344 538.197327,519.288818 
	C561.885010,518.610657 583.909851,515.321045 605.672485,509.267487 
	C627.240234,503.268188 647.243652,494.088104 666.912842,482.954926 
	C683.714233,493.661316 698.147034,507.324921 711.290588,523.033997 
	C698.396179,538.487366 683.929199,552.098572 666.896423,563.090637 
	C628.264160,540.293030 586.574829,528.076233 541.210938,526.998169 
z"/>
<path fill="#000000" opacity="1.000000" stroke="none" 
	d="
M440.620453,542.756409 
	C429.014465,547.979370 417.728516,552.934448 406.515198,558.048828 
	C403.900421,559.241394 401.609894,561.138855 399.008148,562.369324 
	C398.112030,562.793213 396.448364,562.564148 395.603760,561.968750 
	C390.315125,558.240723 384.817902,554.703308 380.031250,550.390686 
	C370.605682,541.898499 361.598755,532.941711 351.968384,523.747192 
	C358.856445,516.424133 364.660980,509.423584 371.333649,503.381897 
	C378.657745,496.750336 386.865021,491.103210 394.504669,484.805389 
	C396.673004,483.017914 397.761383,483.047546 400.319672,484.545135 
	C421.767151,497.100189 444.528595,506.626007 468.858917,511.895355 
	C480.858276,514.494080 493.200775,515.536438 505.158661,518.281982 
	C508.823242,519.123352 511.726562,523.280212 515.542480,526.376404 
	C502.230896,528.341309 489.694946,529.520264 477.482300,532.182373 
	C465.143738,534.871887 453.125519,539.031250 440.620453,542.756409 
z"/>
<path fill="#000000" opacity="1.000000" stroke="none" 
	d="
M538.017700,601.612183 
	C538.002197,580.942261 538.002197,560.741150 538.002197,539.811462 
	C579.919312,541.350647 618.174438,551.117371 654.048767,571.269958 
	C633.678223,582.601257 612.548279,590.968079 590.141663,595.968506 
	C574.876953,599.375122 559.500977,602.127869 543.763306,602.005920 
	C541.853577,601.991150 539.943237,602.054138 538.017700,601.612183 
z"/>
<path fill="#000000" opacity="1.000000" stroke="none" 
	d="
M540.000000,459.000702 
	C540.000000,453.863037 540.000000,449.223877 540.000000,443.836517 
	C580.503357,444.554443 617.964172,455.084778 653.963013,474.691101 
	C617.941101,495.185822 579.958374,504.695190 540.000000,506.188080 
	C540.000000,490.445862 540.000000,474.972534 540.000000,459.000702 
z"/>
<path fill="#000000" opacity="1.000000" stroke="none" 
	d="
M436.387878,487.764709 
	C427.681305,483.553040 419.316284,479.544220 409.806458,474.986786 
	C446.202606,455.151398 483.556183,444.857635 523.299438,443.776459 
	C523.299438,464.836670 523.299438,485.316193 523.299438,507.681732 
	C519.452759,505.614166 516.736572,504.536072 514.486206,502.839935 
	C512.117554,501.054657 510.104156,498.759705 508.102264,496.537231 
	C506.172699,494.395111 504.345428,494.421906 502.841370,496.706970 
	C497.621460,504.637207 490.438538,503.660950 482.839630,501.421661 
	C467.481659,496.895874 452.100800,492.447754 436.387878,487.764709 
z"/>
<path fill="#000000" opacity="1.000000" stroke="none" 
	d="
M501.295227,563.792969 
	C504.050293,567.511292 506.348053,567.807068 509.342072,564.280029 
	C512.849060,560.148621 516.872742,556.455811 521.576660,551.648499 
	C521.576660,569.202332 521.576660,585.340271 521.576660,602.223206 
	C482.315277,600.955933 445.560272,590.653931 410.161926,571.295715 
	C441.240173,553.784119 473.847107,544.345703 507.857758,540.899048 
	C503.057617,545.580872 498.052948,550.462158 492.690033,555.692932 
	C496.220764,559.017822 498.625549,561.282471 501.295227,563.792969 
z"/>
<path fill="#000000" opacity="1.000000" stroke="none" 
	d="
M720.636108,439.265442 
	C725.300659,447.696198 729.444153,456.020020 734.074280,464.063751 
	C738.204590,471.239410 738.437683,478.072205 734.316650,485.294373 
	C729.781067,493.243042 725.609436,501.399078 721.107117,509.367584 
	C720.789246,509.930206 718.501587,510.216278 718.057373,509.749054 
	C706.262268,497.344116 694.325439,485.114075 679.355408,475.169922 
	C681.917480,473.002869 684.097290,470.902039 686.527344,469.147675 
	C697.764832,461.034607 707.821167,451.691772 716.636719,440.985962 
	C717.452576,439.995178 719.077576,439.670593 720.636108,439.265442 
z"/>
<path fill="#000000" opacity="1.000000" stroke="none" 
	d="
M734.777344,561.412415 
	C739.054688,569.337341 737.549744,576.346313 733.305481,583.411926 
	C729.021790,590.543274 725.146851,597.930237 721.338013,605.331360 
	C719.971680,607.986206 718.630005,607.387146 717.343628,605.780945 
	C706.894043,592.733765 694.018311,582.354004 680.834351,572.299500 
	C680.469421,572.021118 680.261230,571.537231 680.437988,571.781067 
	C693.517334,559.720581 706.467529,547.779053 719.840820,535.447510 
	C726.188354,542.382751 729.708435,552.137939 734.777344,561.412415 
z"/>
<path fill="#000000" opacity="1.000000" stroke="none" 
	d="
M367.266907,585.234863 
	C359.772583,592.634216 352.534637,599.784851 344.848480,607.378235 
	C343.356995,605.538025 341.492920,603.905701 340.463898,601.854431 
	C335.656006,592.270569 330.697540,582.724854 326.692017,572.802551 
	C325.716339,570.385742 327.694153,566.381775 329.084839,563.476501 
	C333.757172,553.715515 338.777588,544.121155 343.516998,534.755127 
	C357.589050,547.621582 370.820801,559.719666 383.991272,571.761780 
	C378.933075,575.823669 373.228180,580.404907 367.266907,585.234863 
z"/>
<path fill="#000000" opacity="1.000000" stroke="none" 
	d="
M362.775909,492.723083 
	C356.056549,498.182648 349.585175,503.382355 343.113800,508.582062 
	C343.638000,509.536194 344.162170,510.490326 344.686371,511.444458 
	C342.911377,508.905182 340.793762,506.536957 339.424957,503.794891 
	C335.135742,495.202332 330.753632,486.621368 327.141907,477.737366 
	C324.661011,471.635010 329.217194,466.414917 331.517670,461.282990 
	C335.111816,453.265137 339.838562,445.754974 343.714569,438.704376 
	C357.198975,451.009949 370.572479,463.214355 383.931458,475.405487 
	C377.643860,480.535309 370.333893,486.499268 362.775909,492.723083 
z"/>
<path fill="#000000" opacity="1.000000" stroke="none" 
	d="
M318.000000,620.990967 
	C318.484772,611.455505 318.969543,602.417175 319.499329,592.540039 
	C324.999695,601.482422 329.920105,609.332703 334.626160,617.309448 
	C335.261963,618.387085 335.396179,620.444214 334.786469,621.464417 
	C330.182648,629.167236 325.334717,636.724304 319.603546,645.855591 
	C319.015717,636.923096 318.507843,629.205505 318.000000,620.990967 
z"/>
<path fill="#000000" opacity="1.000000" stroke="none" 
	d="
M741.006714,640.063843 
	C737.363770,633.975281 733.811279,628.234314 730.118042,622.585449 
	C728.751892,620.495911 728.451965,618.827393 729.973267,616.525940 
	C734.133972,610.231262 737.974487,603.725220 741.963745,597.316528 
	C742.505615,596.446045 743.172668,595.653503 744.271423,594.158752 
	C747.488342,611.299500 747.291809,627.527954 744.373169,644.819397 
	C742.983093,642.995605 742.012207,641.721741 741.006714,640.063843 
z"/>
<path fill="#000000" opacity="1.000000" stroke="none" 
	d="
M324.710083,444.738403 
	C323.470123,447.019806 322.480347,449.009033 321.490601,450.998230 
	C321.036835,450.978577 320.583069,450.958923 320.129333,450.939270 
	C316.518738,434.486053 317.530640,417.933990 320.029327,400.340942 
	C325.642334,409.793213 330.757080,418.406433 335.703339,426.735901 
	C332.098419,432.678772 328.529358,438.562500 324.710083,444.738403 
z"/>
<path fill="#000000" opacity="1.000000" stroke="none" 
	d="
M741.008179,447.091095 
	C736.984009,440.490936 732.967346,434.290222 729.047913,428.028625 
	C728.672119,427.428314 728.562500,426.246246 728.902466,425.675751 
	C733.494873,417.968475 738.181335,410.317047 742.883423,402.675751 
	C743.094177,402.333221 743.674927,402.218353 744.106384,401.984985 
	C746.923157,411.092255 747.106567,430.651428 744.456848,451.913239 
	C742.990234,450.006134 742.016418,448.739899 741.008179,447.091095 
z"/>
<path fill="#000000" opacity="1.000000" stroke="none" 
	d="
M745.999023,538.698486 
	C745.512695,541.704773 745.027283,544.246887 744.378662,547.644104 
	C743.208557,546.556824 742.083130,545.884094 741.483459,544.893250 
	C737.580994,538.444702 733.685791,531.985657 730.062073,525.379883 
	C729.382080,524.140320 729.347107,521.901245 730.019104,520.673218 
	C733.636230,514.063660 737.533630,507.605347 741.433411,501.154846 
	C742.045349,500.142700 743.165100,499.437622 744.050049,498.590576 
	C744.700012,498.775604 745.349976,498.960632 745.999939,499.145691 
	C745.999939,512.175232 745.999939,525.204712 745.999023,538.698486 
z"/>
<path fill="#000000" opacity="1.000000" stroke="none" 
	d="
M325.271393,540.294556 
	C323.784088,542.761475 322.532471,544.929749 321.280823,547.098022 
	C320.862915,547.048706 320.445007,546.999329 320.027100,546.950012 
	C316.773010,530.480408 317.210388,513.954651 320.163208,497.138489 
	C325.402710,505.881104 330.504059,514.393250 335.677521,523.025696 
	C332.435486,528.435303 328.971283,534.215576 325.271393,540.294556 
z"/>
</svg>