<svg id="svg" version="1.1" xmlns="http://www.w3.org/2000/svg" xmlns:xlink="http://www.w3.org/1999/xlink" width="400" height="400" viewBox="0, 0, 400,400"><g id="svgg"><path id="path0" d="M116.697 202.657 C 102.104 277.795,90.117 339.529,90.058 339.844 L 89.951 340.417 140.340 340.416 C 190.489 340.414,195.402 340.357,203.542 339.674 C 258.734 335.047,295.906 308.636,305.710 267.083 C 314.772 228.677,294.776 202.393,251.771 196.182 L 248.438 195.701 250.938 195.125 C 287.785 186.635,312.519 160.442,316.153 126.061 C 319.960 90.051,296.649 70.450,245.521 66.673 C 238.151 66.129,230.417 66.044,187.917 66.044 L 143.229 66.043 116.697 202.657 M232.604 97.477 C 265.809 100.135,278.139 110.371,275.544 133.125 C 272.145 162.939,251.051 179.325,213.333 181.455 C 208.250 181.742,159.792 181.736,159.792 181.448 C 159.792 181.164,175.815 97.932,175.966 97.428 C 176.104 96.970,226.822 97.014,232.604 97.477 M209.688 212.081 C 252.334 213.272,271.065 226.838,268.266 254.508 C 264.980 286.986,243.589 305.110,204.375 308.643 C 195.482 309.444,135.000 309.794,135.000 309.045 C 135.000 308.576,153.740 212.268,153.873 212.052 C 154.020 211.814,200.998 211.839,209.688 212.081 " stroke="none" fill="#fbfbfb" fill-rule="evenodd"></path><path id="path1" d="M0.000 200.000 L 0.000 400.000 200.000 400.000 L 400.000 400.000 400.000 200.000 L 400.000 0.000 200.000 0.000 L 0.000 0.000 0.000 200.000 M244.167 66.425 C 257.016 67.497,264.980 68.705,273.438 70.867 C 307.444 79.560,321.666 100.730,315.194 133.021 C 308.943 164.207,285.213 187.361,251.595 195.075 C 250.353 195.361,249.301 195.630,249.257 195.673 C 249.214 195.717,250.136 195.871,251.308 196.016 C 294.533 201.374,315.512 229.491,305.437 268.561 C 294.454 311.152,255.609 336.936,197.500 340.205 C 190.126 340.620,89.745 340.477,89.873 340.052 C 89.933 339.852,101.898 278.328,116.462 203.333 C 131.027 128.339,142.995 66.765,143.058 66.503 L 143.174 66.028 192.160 66.101 C 228.092 66.154,241.951 66.241,244.167 66.425 M176.042 97.350 C 176.042 97.477,160.022 180.670,159.896 181.198 L 159.784 181.667 181.819 181.662 C 214.045 181.654,219.711 181.383,229.797 179.363 C 257.205 173.874,272.703 157.953,275.518 132.396 C 277.902 110.753,265.884 100.665,234.167 97.683 C 231.733 97.454,176.042 97.135,176.042 97.350 M153.864 212.331 C 153.814 212.481,149.590 234.167,144.477 260.521 C 139.363 286.875,135.131 308.606,135.072 308.813 C 134.918 309.352,197.214 309.239,203.021 308.690 C 240.908 305.110,261.195 290.161,267.259 261.354 C 273.503 231.699,258.231 216.235,219.078 212.562 C 214.176 212.102,154.011 211.889,153.864 212.331 " stroke="none" fill="#040404" fill-rule="evenodd"></path><path id="path2" d="M208.385 181.602 C 208.586 181.654,208.914 181.654,209.115 181.602 C 209.315 181.550,209.151 181.507,208.750 181.507 C 208.349 181.507,208.185 181.550,208.385 181.602 " stroke="none" fill="#7c7c7c" fill-rule="evenodd"></path><path id="path3" d="M235.052 66.191 C 235.367 66.239,235.883 66.239,236.198 66.191 C 236.513 66.143,236.255 66.104,235.625 66.104 C 234.995 66.104,234.737 66.143,235.052 66.191 M240.469 66.394 C 240.669 66.446,240.997 66.446,241.198 66.394 C 241.398 66.341,241.234 66.298,240.833 66.298 C 240.432 66.298,240.268 66.341,240.469 66.394 M304.366 86.927 C 304.877 87.471,305.322 87.917,305.356 87.917 C 305.512 87.917,305.347 87.730,304.427 86.866 L 303.438 85.938 304.366 86.927 M187.849 97.240 C 194.400 97.270,205.181 97.270,211.807 97.240 C 218.433 97.209,213.073 97.184,199.896 97.184 C 186.719 97.184,181.297 97.209,187.849 97.240 M229.534 97.439 C 229.793 97.489,230.168 97.487,230.367 97.435 C 230.566 97.383,230.354 97.342,229.896 97.344 C 229.438 97.347,229.275 97.389,229.534 97.439 M268.958 109.271 C 269.347 109.672,269.712 110.000,269.769 110.000 C 269.827 110.000,269.555 109.672,269.167 109.271 C 268.778 108.870,268.413 108.542,268.356 108.542 C 268.298 108.542,268.570 108.870,268.958 109.271 M316.523 116.771 C 316.524 117.458,316.563 117.714,316.609 117.340 C 316.656 116.966,316.655 116.403,316.607 116.090 C 316.560 115.777,316.522 116.083,316.523 116.771 M316.525 120.208 C 316.525 120.953,316.563 121.258,316.609 120.885 C 316.655 120.513,316.655 119.904,316.609 119.531 C 316.563 119.159,316.525 119.464,316.525 120.208 M261.451 163.906 L 260.313 165.104 261.510 163.965 C 262.623 162.908,262.804 162.708,262.649 162.708 C 262.617 162.708,262.078 163.247,261.451 163.906 M294.266 172.135 L 292.396 174.063 294.323 172.192 C 295.383 171.163,296.250 170.296,296.250 170.265 C 296.250 170.113,296.004 170.346,294.266 172.135 M209.740 181.605 C 209.997 181.655,210.419 181.655,210.677 181.605 C 210.935 181.556,210.724 181.515,210.208 181.515 C 209.693 181.515,209.482 181.556,209.740 181.605 M166.719 212.031 C 173.794 212.062,185.372 212.062,192.448 212.031 C 199.523 212.001,193.734 211.976,179.583 211.976 C 165.432 211.976,159.643 212.001,166.719 212.031 M213.075 212.231 C 213.334 212.281,213.709 212.279,213.909 212.226 C 214.108 212.174,213.896 212.134,213.438 212.136 C 212.979 212.138,212.816 212.181,213.075 212.231 M292.083 212.766 C 292.083 212.797,292.810 213.524,293.698 214.380 L 295.313 215.938 293.755 214.323 C 292.309 212.823,292.083 212.613,292.083 212.766 M307.773 247.813 C 307.774 248.500,307.813 248.756,307.859 248.382 C 307.906 248.007,307.905 247.445,307.857 247.132 C 307.810 246.819,307.772 247.125,307.773 247.813 M307.775 251.458 C 307.775 252.203,307.813 252.508,307.859 252.135 C 307.905 251.763,307.905 251.154,307.859 250.781 C 307.813 250.409,307.775 250.714,307.775 251.458 M197.344 309.102 C 197.544 309.154,197.872 309.154,198.073 309.102 C 198.273 309.050,198.109 309.007,197.708 309.007 C 197.307 309.007,197.143 309.050,197.344 309.102 M149.098 309.323 C 156.910 309.353,169.753 309.353,177.640 309.323 C 185.527 309.293,179.135 309.268,163.438 309.268 C 147.740 309.268,141.287 309.293,149.098 309.323 M192.865 340.355 C 193.122 340.405,193.544 340.405,193.802 340.355 C 194.060 340.306,193.849 340.265,193.333 340.265 C 192.818 340.265,192.607 340.306,192.865 340.355 " stroke="none" fill="#848484" fill-rule="evenodd"></path><path id="path4" d="M206.510 181.608 C 206.826 181.655,207.341 181.655,207.656 181.608 C 207.971 181.560,207.714 181.521,207.083 181.521 C 206.453 181.521,206.195 181.560,206.510 181.608 M252.285 289.948 L 251.146 291.146 252.344 290.007 C 253.003 289.381,253.542 288.842,253.542 288.809 C 253.542 288.655,253.342 288.835,252.285 289.948 M283.433 307.344 L 281.563 309.271 283.490 307.400 C 285.279 305.663,285.512 305.417,285.360 305.417 C 285.329 305.417,284.462 306.284,283.433 307.344 " stroke="none" fill="#565656" fill-rule="evenodd"></path></g></svg>